<?xml version="1.0" standalone="no"?>
<!DOCTYPE svg PUBLIC "-//W3C//DTD SVG 20010904//EN"
 "http://www.w3.org/TR/2001/REC-SVG-20010904/DTD/svg10.dtd">
<svg version="1.0" xmlns="http://www.w3.org/2000/svg"
 width="1200.000000pt" height="1200.000000pt" viewBox="0 0 1200.000000 1200.000000"
 preserveAspectRatio="xMidYMid meet">
<metadata>
Created by potrace 1.11, written by Peter Selinger 2001-2013
</metadata>
<g transform="translate(0.000000,1200.000000) scale(0.100000,-0.100000)"
fill="#000000" stroke="none">
<path d="M5277 10448 c5 -7 23 -31 41 -54 17 -22 32 -47 34 -55 2 -8 11 -20
20 -27 52 -38 242 -346 339 -547 207 -429 266 -830 174 -1175 -26 -94 -101
-261 -120 -266 -5 -2 -55 76 -110 173 -490 865 -1043 1471 -1580 1734 -272
133 -540 184 -761 145 -170 -29 -173 -9 32 -219 735 -753 1122 -1347 1159
-1782 12 -138 -31 -289 -102 -357 l-28 -27 -76 92 c-649 784 -1407 1253 -2167
1342 -332 39 -673 4 -992 -101 -146 -49 -387 -161 -373 -174 4 -5 64 -39 133
-75 941 -505 1598 -996 1934 -1445 119 -159 186 -287 238 -450 31 -100 33
-295 4 -380 -17 -51 -63 -140 -72 -140 -2 0 -74 32 -161 71 -663 300 -1241
443 -1723 426 -368 -14 -653 -116 -853 -305 -31 -30 -57 -58 -57 -62 0 -4 51
-10 113 -12 95 -4 129 -10 222 -42 237 -79 546 -261 835 -492 160 -128 503
-467 618 -612 168 -210 302 -434 360 -602 65 -186 69 -355 13 -475 -99 -212
-358 -368 -689 -416 -126 -18 -467 -7 -617 20 -226 40 -492 112 -673 182 -42
16 -77 27 -79 25 -6 -5 66 -166 114 -256 316 -588 927 -1045 1828 -1365 562
-200 1348 -357 1963 -392 109 -6 114 -5 108 13 -20 66 -90 371 -111 488 -105
578 -103 1186 6 1721 131 640 411 1214 813 1669 72 81 323 310 463 423 637
512 1254 718 2243 749 183 6 597 -6 816 -23 l81 -6 12 64 c45 250 55 382 55
699 0 278 -2 332 -22 459 -83 528 -286 945 -622 1280 -211 209 -486 387 -771
497 -83 32 -229 76 -229 69 0 -1 18 -42 40 -90 22 -48 40 -89 40 -91 0 -2 -8
-1 -17 2 -10 3 -8 -1 5 -9 26 -15 78 -124 177 -374 178 -445 277 -844 292
-1163 9 -220 -18 -382 -92 -536 -35 -73 -57 -103 -111 -153 -36 -34 -70 -59
-74 -54 -4 4 -20 51 -35 103 -87 299 -226 660 -359 935 -211 434 -407 718
-673 975 -258 249 -522 397 -797 445 -111 19 -192 20 -179 3z"/>
<path d="M11040 7579 c-353 -33 -787 -144 -1128 -290 -819 -350 -1595 -1025
-2157 -1874 -175 -265 -192 -313 -202 -595 -9 -251 25 -505 108 -786 177 -605
583 -1254 962 -1535 163 -122 258 -147 597 -156 325 -9 838 20 1460 82 225 23
439 51 447 58 1 2 -95 36 -215 75 -616 205 -1160 472 -1531 749 -141 106 -337
300 -409 406 -82 119 -162 307 -162 379 0 10 43 28 133 56 494 154 1011 277
1608 382 436 77 454 89 243 160 -250 85 -434 114 -724 114 -353 0 -684 -53
-1059 -170 -62 -19 -114 -34 -116 -32 -1 2 25 73 60 158 194 484 466 938 806
1345 204 244 559 580 821 777 367 277 801 524 1156 659 21 8 23 12 12 19 -12
8 -11 10 5 11 11 1 -5 5 -35 9 -75 11 -562 9 -680 -1z"/>
<path d="M6555 6543 c-296 -63 -574 -288 -832 -673 -104 -156 -236 -391 -253
-452 -24 -80 34 -34 373 300 172 169 352 337 400 373 200 150 351 209 705 279
122 25 222 48 222 52 0 12 -80 55 -155 83 -144 55 -317 69 -460 38z"/>
<path d="M6430 6035 c-229 -64 -384 -265 -384 -500 1 -257 186 -470 443 -507
368 -54 673 298 567 654 l-13 43 -7 -45 c-23 -132 -124 -220 -253 -220 -174 0
-290 161 -242 334 6 21 29 59 52 84 56 60 114 86 196 85 l63 -1 -30 20 c-95
60 -277 84 -392 53z"/>
</g>
</svg>
